<?xml version="1.0" encoding="UTF-8"?>
<!DOCTYPE svg PUBLIC "-//W3C//DTD SVG 1.1//EN" "http://www.w3.org/Graphics/SVG/1.1/DTD/svg11.dtd">
<!-- Creator: CorelDRAW 2018 (64 Bit) -->
<svg xmlns="http://www.w3.org/2000/svg" xml:space="preserve" width="210mm" height="297mm" version="1.1" style="shape-rendering:geometricPrecision; text-rendering:geometricPrecision; image-rendering:optimizeQuality; fill-rule:evenodd; clip-rule:evenodd"
viewBox="0 0 21000 29700"
 xmlns:xlink="http://www.w3.org/1999/xlink">
 <defs>
  <style type="text/css">
   <![CDATA[
    .fil1 {fill:url(#id0)}
    .fil2 {fill:url(#id1)}
    .fil3 {fill:url(#id2)}
    .fil4 {fill:url(#id3)}
    .fil0 {fill:url(#id4)}
   ]]>
  </style>
  <linearGradient id="id0" gradientUnits="userSpaceOnUse" x1="2210.59" y1="14020" x2="18801.55" y2="14020">
   <stop offset="0" style="stop-opacity:1; stop-color:#22A1BC"/>
   <stop offset="1" style="stop-opacity:1; stop-color:#00677B"/>
  </linearGradient>
  <linearGradient id="id1" gradientUnits="userSpaceOnUse" xlink:href="#id0" x1="14690.1" y1="25711.41" x2="14690.1" y2="1861.4">
  </linearGradient>
  <linearGradient id="id2" gradientUnits="userSpaceOnUse" x1="4830.65" y1="10190.83" x2="15754.33" y2="10190.83">
   <stop offset="0" style="stop-opacity:1; stop-color:#00677B"/>
   <stop offset="1" style="stop-opacity:1; stop-color:#22A1BC"/>
  </linearGradient>
  <linearGradient id="id3" gradientUnits="userSpaceOnUse" xlink:href="#id0" x1="8576.66" y1="10171.13" x2="12460.8" y2="10171.13">
  </linearGradient>
  <radialGradient id="id4" gradientUnits="userSpaceOnUse" gradientTransform="matrix(0.999998 -0 -0 -0.143913 0 30650)" cx="10483.6" cy="26794.06" r="10220.41" fx="10483.6" fy="26794.06">
   <stop offset="0" style="stop-opacity:1; stop-color:#CCDBE3"/>
   <stop offset="1" style="stop-opacity:1; stop-color:#FEFEFE"/>
  </radialGradient>
 </defs>
 <g id="Camada_x0020_1">
  <metadata id="CorelCorpID_0Corel-Layer"/>
  <g id="_2395263773024">
   <path class="fil0" d="M17740.96 26793.93c0,-576.62 -3249.28,-1044.33 -7257.36,-1044.33 -4008.15,0 -7257.37,467.71 -7257.37,1044.33 0,576.95 3249.22,1044.59 7257.37,1044.59 4008.08,0 7257.36,-467.64 7257.36,-1044.59z"/>
   <path class="fil1" d="M15557.7 12098.8c-885.2,2411.06 -3433.43,3901.26 -5968.31,3468.66 -1924.98,-328.63 -3558.74,-1729.72 -4191.68,-3574.93 -647.24,-1887.03 -172.69,-4027.53 1203.94,-5468.95 1472.79,-1541.84 3779,-2078.41 5779.95,-1328.16 2397.98,899.29 3864,3449.22 3424.89,5975.96 -54.89,315.62 -138.26,626.5 -248.79,927.42 -45.34,123.48 212.53,-578.45 0,0zm867.57 -7780.1c-2036.47,-2036.33 -5047.8,-2893.81 -7851.48,-2235.72 -2137.52,501.73 -4024.54,1860.66 -5188.76,3720.65 -590.72,943.88 -989.5,2004.54 -1165.92,3103.97 -192.54,1199.67 -91.01,2417.09 166.45,3599.47 484.45,2224.94 1500.86,4319.43 2659.39,6265.82 1009.82,1696.65 2160.63,3309.6 3400.01,4845.69 376.14,466.23 760.9,925.59 1157.1,1374.8 207.06,234.97 468.32,596.14 764.36,698.41 48.72,16.74 121.38,51.3 173.7,53.54 68.66,3.25 156.83,-34.57 222.84,-59.1 156.29,-57.61 289.94,-183.6 402.65,-304.64 56.93,-60.86 111.96,-123.96 167.26,-186.31 332.16,-375.27 654.7,-759.07 971.14,-1147.62 1191.26,-1462.35 2299.02,-2996.68 3288.66,-4602.72 1197.63,-1943.35 2257.34,-4021.02 2852.47,-6234.18 323.48,-1202.92 513.11,-2469 402.84,-3714.95 -116.1,-1311.42 -545.37,-2588.22 -1246.16,-3702.9 -335.28,-533.57 -730.87,-1028.86 -1176.55,-1474.21z"/>
   <path class="fil2" d="M18880.99 10244.78c0,2137.58 -737.12,4255.52 -1635.18,6168.36 -855.79,1822.92 -1919.09,3545.86 -3081.75,5187.62 -797.23,1125.79 -1644.27,2218.23 -2543.55,3264.32 -149.85,174.59 -299.3,350.26 -456.4,518.33 -110.4,118.21 -240.73,239.45 -391.52,299.84 -48.26,19.52 -232.95,104.71 -276.52,46.29 -22.5,-30.29 0,-165.3 0,-200.88 0,-1031.52 0,-2063.11 0,-3094.42 0,-1452.67 0,-2905.06 0,-4357.52 0,-549.3 0,-1098.41 0,-1647.51 0,-173.1 0,-346.19 0,-519.29 0,-48.38 -28.13,-208.94 0,-250.49 35.92,-53.13 345.03,-25.62 425.95,-31.85 328.98,-25.82 656.12,-83.16 974.66,-169.09 632.33,-171.07 1233.62,-459.17 1762.46,-845.96 1078.36,-788.28 1844.27,-1963.41 2115.37,-3273.07 279.02,-1347.95 24.25,-2775 -704.04,-3942.13 -630.37,-1010.03 -1595.47,-1797.57 -2712.38,-2210.38 -305.94,-113.24 -621.9,-196.95 -943.15,-253.07 -148.42,-25.82 -297.79,-46.08 -447.91,-58.82 -82.96,-7.05 -166.05,-11.53 -249.14,-15.32 -22.7,-1.02 -205.02,14.03 -221.82,-5.29 -15.73,-18.03 0,-119.21 0,-141.99 0,-116.49 0,-232.73 0,-348.96 0,-685.87 0,-1371.74 0,-2057.61 0,-148.02 0,-296.31 0,-444.39 1868.8,0 3708.18,633.75 5177.04,1789.56 1261.55,992.48 2228.41,2341.99 2752.03,3859.99 302.74,878.01 455.85,1805.16 455.85,2733.73z"/>
   <path class="fil3" d="M12320.34 6214.74c1894.41,854.42 2963.01,2987.48 2499.23,5014.52 -356.9,1560.15 -1576.62,2836.4 -3115.57,3271.31 -1573.64,444.93 -3302.28,-37.55 -4422.52,-1226.71 -1212.06,-1286.55 -1542.94,-3225.96 -814.23,-4840.67 869.87,-1927.63 3057.62,-2994.05 5113,-2476.47 253.81,63.85 501.19,151.28 740.09,258.02 130.8,59.1 -97.53,-43.64 0,0zm-7489.7 4031.05c0,2359.01 1522.21,4524.86 3739.16,5329.67 2233.42,810.91 4796.22,100.71 6308.32,-1726.4 1515.36,-1831.18 1716.58,-4490.56 484.86,-6525.33 -1232,-2035.59 -3671.04,-3110.55 -6004.22,-2631.79 -2285.28,468.65 -4098.7,2367.94 -4459.8,4672.86 -45.61,291.37 -68.32,586.18 -68.32,880.99z"/>
   <path class="fil4" d="M10496.07 8161.14c-869.61,0 -1667.65,563.34 -1962.4,1380.96 -296.37,822.16 -33.21,1762.59 639.18,2317.93 673.47,556.35 1651.25,628.74 2398.99,176.62 744.29,-450.16 1140.16,-1338.94 971.61,-2193.16 -190.31,-964.7 -1064.46,-1682.35 -2047.38,-1682.35z"/>
  </g>
 </g>
</svg>
